<svg width="22" height="17" viewBox="0 0 22 17" fill="none" xmlns="http://www.w3.org/2000/svg">
<path fill-rule="evenodd" clip-rule="evenodd" d="M6.68945 0.275269H14.7168C18.4107 0.275269 21.4062 2.49454 21.4062 5.23121V11.1783C21.4062 13.915 18.4107 16.1343 14.7168 16.1343H6.68945C2.99554 16.1343 0 13.915 0 11.1783V5.23121C0 2.49454 2.99554 0.275269 6.68945 0.275269ZM14.7167 14.6476C17.2988 14.6476 19.3993 13.0915 19.3993 11.1785V5.23134C19.3993 3.31835 17.2988 1.76218 14.7167 1.76218H6.68936C4.10723 1.76218 2.00674 3.31835 2.00674 5.23134V11.1785C2.00674 13.0915 4.10723 14.6476 6.68936 14.6476H14.7167Z" fill="white"/>
<path fill-rule="evenodd" clip-rule="evenodd" d="M5.35165 8.20486C5.35165 6.01533 7.7478 4.24011 10.7032 4.24011C13.6585 4.24011 16.0547 6.01533 16.0547 8.20486C16.0547 10.3944 13.6585 12.1696 10.7032 12.1696C7.7478 12.1696 5.35165 10.3944 5.35165 8.20486ZM7.35828 8.2049C7.35828 9.57076 8.85939 10.6829 10.703 10.6829C12.5466 10.6829 14.0477 9.57076 14.0477 8.2049C14.0477 6.83805 12.5466 5.72693 10.703 5.72693C8.85939 5.72693 7.35828 6.83805 7.35828 8.2049Z" fill="white"/>
<ellipse cx="16.456" cy="3.94261" rx="0.713146" ry="0.528303" fill="white"/>
</svg>
