<svg width="24" height="16" viewBox="0 0 24 16" fill="none" xmlns="http://www.w3.org/2000/svg">
<path d="M24 2.4454C23.1075 2.74116 22.1565 2.93721 21.165 3.03239C22.185 2.57232 22.9635 1.84934 23.3295 0.977915C22.3785 1.40626 21.3285 1.70882 20.2095 1.87767C19.3065 1.15129 18.0195 0.701416 16.6155 0.701416C13.8915 0.701416 11.6985 2.37174 11.6985 4.41942C11.6985 4.71405 11.7315 4.99735 11.8125 5.26705C7.722 5.11633 4.1025 3.63525 1.671 1.37907C1.2465 1.93546 0.9975 2.57232 0.9975 3.2579C0.9975 4.54521 1.875 5.68633 3.183 6.34698C2.3925 6.33565 1.617 6.16227 0.96 5.88917C0.96 5.9005 0.96 5.91524 0.96 5.92997C0.96 7.73628 2.6655 9.23662 4.902 9.58225C4.5015 9.66497 4.065 9.70463 3.612 9.70463C3.297 9.70463 2.979 9.69103 2.6805 9.64117C3.318 11.1132 5.127 12.1954 7.278 12.2305C5.604 13.2198 3.4785 13.8159 1.1775 13.8159C0.774 13.8159 0.387 13.8023 0 13.7649C2.1795 14.8267 4.7625 15.4329 7.548 15.4329C16.602 15.4329 21.552 9.76696 21.552 4.8557C21.552 4.69139 21.5445 4.53274 21.534 4.37523C22.5105 3.85169 23.331 3.19784 24 2.4454Z" fill="white"/>
</svg>
